<svg width="25" height="25" viewBox="0 0 25 25" fill="none" xmlns="http://www.w3.org/2000/svg">
<g clip-path="url(#clip0_10_696)">
<path d="M12.5002 2.08337C6.75016 2.08337 2.0835 6.75004 2.0835 12.5C2.0835 18.25 6.75016 22.9167 12.5002 22.9167C18.2502 22.9167 22.9168 18.25 22.9168 12.5C22.9168 6.75004 18.2502 2.08337 12.5002 2.08337ZM12.5002 5.20837C14.2293 5.20837 15.6252 6.60421 15.6252 8.33337C15.6252 10.0625 14.2293 11.4584 12.5002 11.4584C10.771 11.4584 9.37516 10.0625 9.37516 8.33337C9.37516 6.60421 10.771 5.20837 12.5002 5.20837ZM12.5002 20C9.896 20 7.59391 18.6667 6.25016 16.6459C6.28141 14.573 10.4168 13.4375 12.5002 13.4375C14.5731 13.4375 18.7189 14.573 18.7502 16.6459C17.4064 18.6667 15.1043 20 12.5002 20Z" fill="white"/>
</g>
<defs>
<clipPath id="clip0_10_696">
<rect width="25" height="25" fill="white"/>
</clipPath>
</defs>
</svg>
