<svg width="35" height="35" viewBox="0 0 35 35" fill="none" xmlns="http://www.w3.org/2000/svg">
<g clip-path="url(#clip0_64_2)">
<path d="M17.4999 8.74998V13.125L23.3333 7.29165L17.4999 1.45831V5.83331C11.0541 5.83331 5.83325 11.0541 5.83325 17.5C5.83325 19.7896 6.50409 21.9187 7.64158 23.7125L9.77075 21.5833C9.1145 20.3729 8.74992 18.9729 8.74992 17.5C8.74992 12.6729 12.6728 8.74998 17.4999 8.74998ZM27.3583 11.2875L25.2291 13.4166C25.8708 14.6416 26.2499 16.0271 26.2499 17.5C26.2499 22.3271 22.327 26.25 17.4999 26.25V21.875L11.6666 27.7083L17.4999 33.5416V29.1666C23.9458 29.1666 29.1666 23.9458 29.1666 17.5C29.1666 15.2104 28.4958 13.0812 27.3583 11.2875Z" fill="white"/>
</g>
<defs>
<clipPath id="clip0_64_2">
<rect width="35" height="35" fill="white"/>
</clipPath>
</defs>
</svg>
