<svg width="20" height="20" viewBox="0 0 20 20" fill="none" xmlns="http://www.w3.org/2000/svg">
<g clip-path="url(#clip0_10_83)">
<path d="M11.6666 3.33331H8.33325V6.66665H11.6666V3.33331Z" fill="#FF1A1A"/>
<path d="M6.66659 13.3333H3.33325V16.6666H6.66659V13.3333Z" fill="#FF1A1A"/>
<path d="M6.66659 8.33331H3.33325V11.6666H6.66659V8.33331Z" fill="#FF1A1A"/>
<path d="M6.66659 3.33331H3.33325V6.66665H6.66659V3.33331Z" fill="#FF1A1A"/>
<path d="M11.6666 10.35V8.33331H8.33325V11.6666H10.3499L11.6666 10.35Z" fill="#FF1A1A"/>
<path d="M17.3999 9.40831L16.4249 8.43331C16.2916 8.29998 16.0749 8.29998 15.9416 8.43331L15.2083 9.16665L16.6666 10.625L17.3999 9.89165C17.5333 9.75831 17.5333 9.54165 17.3999 9.40831Z" fill="#FF1A1A"/>
<path d="M9.1665 15.2083V16.6666H10.6248L16.1832 11.1083L14.7248 9.64996L9.1665 15.2083Z" fill="#FF1A1A"/>
<path d="M16.6666 3.33331H13.3333V6.66665H16.6666V3.33331Z" fill="#FF1A1A"/>
</g>
<defs>
<clipPath id="clip0_10_83">
<rect width="20" height="20" fill="white"/>
</clipPath>
</defs>
</svg>
