<svg width="30" height="30" viewBox="0 0 30 30" fill="none" xmlns="http://www.w3.org/2000/svg">
<g clip-path="url(#clip0_10_181)">
<path d="M8.45 6.6125L6.2 4.375L4.4375 6.1375L6.675 8.375L8.45 6.6125ZM5 13.6875H1.25V16.1875H5V13.6875ZM16.25 1.25H13.75V4.9375H16.25V1.25ZM25.5625 6.1375L23.8 4.375L21.5625 6.6125L23.325 8.375L25.5625 6.1375ZM21.55 23.2625L23.7875 25.5125L25.55 23.75L23.3 21.5125L21.55 23.2625ZM25 13.6875V16.1875H28.75V13.6875H25ZM15 7.4375C10.8625 7.4375 7.5 10.8 7.5 14.9375C7.5 19.075 10.8625 22.4375 15 22.4375C19.1375 22.4375 22.5 19.075 22.5 14.9375C22.5 10.8 19.1375 7.4375 15 7.4375ZM13.75 28.625H16.25V24.9375H13.75V28.625ZM4.4375 23.7375L6.2 25.5L8.4375 23.25L6.675 21.4875L4.4375 23.7375Z" fill="black"/>
</g>
<defs>
<clipPath id="clip0_10_181">
<rect width="30" height="30" fill="white"/>
</clipPath>
</defs>
</svg>
