<svg width="44" height="44" viewBox="0 0 44 44" fill="none" xmlns="http://www.w3.org/2000/svg">
<path d="M20.0804 29.1243L22.4647 26.6273L24.848 29.1243V39.4167H20.0804V29.1243Z" fill="#546E7A"/>
<path d="M16.2589 26.6365L19.6552 26.0178L20.1163 29.4388L14.0663 37.7658L10.2098 34.9626L16.2589 26.6365Z" fill="#FF1063"/>
<path d="M14.6319 22.3749L17.7421 23.8709L16.1049 26.9097L6.31586 30.0896L4.84277 25.5558L14.6319 22.3749Z" fill="#DC14FF"/>
<path d="M15.818 17.9731L17.4551 21.0118L14.3449 22.5078L4.55579 19.327L6.02887 14.7922L15.818 17.9731Z" fill="#41BEF7"/>
<path d="M19.3655 15.1085L18.9044 18.5295L15.5081 17.9107L9.45813 9.58374L13.3155 6.78149L19.3655 15.1085Z" fill="#1AE8FF"/>
<path d="M23.9194 14.8756L21.5352 17.3726L19.1519 14.8756V4.58331H23.9194V14.8756Z" fill="#546E7A"/>
<path d="M27.7402 17.3644L24.3449 17.9832L23.8838 14.5622L29.9329 6.23517L33.7902 9.03742L27.7402 17.3644Z" fill="#FF1063"/>
<path d="M29.3691 21.6242L26.2579 20.1282L27.8951 17.0894L37.6842 13.9095L39.1573 18.4433L29.3691 21.6242Z" fill="#DC14FF"/>
<path d="M28.182 26.0269L26.5448 22.9882L29.6551 21.4931L39.4441 24.673L37.9711 29.2078L28.182 26.0269Z" fill="#41BEF7"/>
<path d="M24.6345 28.8915L25.0965 25.4705L28.4919 26.0893L34.5419 34.4163L30.6845 37.2185L24.6345 28.8915Z" fill="#1AE8FF"/>
</svg>
